HIERARCHY
ROOT root
{
	OFFSET	0	13.1	24.9
	CHANNELS 6  Xposition Yposition Zposition Xrotation Yrotation Zrotation
	JOINT spine_1
	{
		OFFSET	0	9.99999	0
		CHANNELS 3  Xrotation Yrotation Zrotation
		JOINT spine_2
		{
			OFFSET	0	112	-10
			CHANNELS 3  Xrotation Yrotation Zrotation
			JOINT spine_3
			{
				OFFSET	0	206.5	19.3
				CHANNELS 3  Xrotation Yrotation Zrotation
				JOINT spine_4
				{
					OFFSET	0	110.4	14.6
					CHANNELS 3  Xrotation Yrotation Zrotation
					JOINT neck_1
					{
						OFFSET	0	71.8	-50.3
						CHANNELS 3  Xrotation Yrotation Zrotation
						JOINT neck_2
						{
							OFFSET	0	86.2	-25.8
							CHANNELS 3  Xrotation Yrotation Zrotation
							JOINT head_ee
							{
								OFFSET	0	179.8	-8.7
								CHANNELS 3  Xrotation Yrotation Zrotation
								End Site
								{
									OFFSET	1	0	0
								}
							}
						}
					}
					JOINT left_clavicle
					{
						OFFSET	-43.2	22.4	-70.8
						CHANNELS 3  Xrotation Yrotation Zrotation
						JOINT left_shoulder
						{
							OFFSET	-93.9	-5.79999	48.7
							CHANNELS 3  Xrotation Yrotation Zrotation
							JOINT left_elbow
							{
								OFFSET	-291.4	-30.8	15.2
								CHANNELS 3  Xrotation Yrotation Zrotation
								JOINT left_lowarm_twist
								{
									OFFSET	-110.7	-3.89999	13.6
									CHANNELS 3  Xrotation Yrotation Zrotation
									JOINT left_hand
									{
										OFFSET	-110.7	-3.89999	13.6
										CHANNELS 3  Xrotation Yrotation Zrotation
										JOINT left_ee
										{
											OFFSET	-80.8	-5.10001	12.1
											CHANNELS 3  Xrotation Yrotation Zrotation
											End Site
											{
												OFFSET	1	0	0
											}
										}
									}
								}
							}
						}
					}
					JOINT right_clavicle
					{
						OFFSET	43.2	22.4	-70.8
						CHANNELS 3  Xrotation Yrotation Zrotation
						JOINT right_shoulder
						{
							OFFSET	93.9	-5.79999	48.7
							CHANNELS 3  Xrotation Yrotation Zrotation
							JOINT right_elbow
							{
								OFFSET	291.4	-30.8	15.2
								CHANNELS 3  Xrotation Yrotation Zrotation
								JOINT right_lowarm_twist
								{
									OFFSET	110.7	-3.89999	13.6
									CHANNELS 3  Xrotation Yrotation Zrotation
									JOINT right_hand
									{
										OFFSET	110.7	-3.89999	13.6
										CHANNELS 3  Xrotation Yrotation Zrotation
										JOINT right_ee
										{
											OFFSET	80.8	-5.10001	12.1
											CHANNELS 3  Xrotation Yrotation Zrotation
											End Site
											{
												OFFSET	1	0	0
											}
										}
									}
								}
							}
						}
					}
				}
			}
		}
	}
	JOINT left_hip
	{
		OFFSET	-82.8	-127.5	0.300001
		CHANNELS 3  Xrotation Yrotation Zrotation
		JOINT left_knee
		{
			OFFSET	-28.2	-396.7	2.2
			CHANNELS 3  Xrotation Yrotation Zrotation
			JOINT left_ankle
			{
				OFFSET	-11.7	-411.3	35.4
				CHANNELS 3  Xrotation Yrotation Zrotation
				JOINT left_toes
				{
					OFFSET	0	-60	-88.6
					CHANNELS 3  Xrotation Yrotation Zrotation
					JOINT left_foot_ee
					{
						OFFSET	-22.5	-16.5	-42.2
						CHANNELS 3  Xrotation Yrotation Zrotation
						End Site
						{
							OFFSET	1	0	0
						}
					}
				}
			}
		}
	}
	JOINT right_hip
	{
		OFFSET	82.8	-127.5	0.300001
		CHANNELS 3  Xrotation Yrotation Zrotation
		JOINT right_knee
		{
			OFFSET	28.2	-396.7	2.2
			CHANNELS 3  Xrotation Yrotation Zrotation
			JOINT right_ankle
			{
				OFFSET	11.7	-411.3	35.4
				CHANNELS 3  Xrotation Yrotation Zrotation
				JOINT right_toes
				{
					OFFSET	0	-60	-88.6
					CHANNELS 3  Xrotation Yrotation Zrotation
					JOINT right_foot_ee
					{
						OFFSET	22.5	-16.5	-42.2
						CHANNELS 3  Xrotation Yrotation Zrotation
						End Site
						{
							OFFSET	1	0	0
						}
					}
				}
			}
		}
	}
}
MOTION
Frames: 10
Frame Time: 0.02
2570.10035932 747.573 -1504.27257466 58.4420561435 85.3368053879 -60.7190621431 -1.02386 0.258752 0.860903 -1.02347 0.203448 0.875622 -1.01996 -0.00112489 0.898944 -1.02106 0.140855 0.887842 -1.39183 4.27002 1.17799 -1.36631 6.73834 1.77408 -0.0 0.0 -0.0 -2.19091 15.1082 -1.73106 -11.8893 -22.0361 76.4128 0.236664 -6.68678 0.0138257 -30.5988 -2.01127 3.30704 -1.00257 7.22305 -3.51018 -0.0 0.0 -0.0 2.60884 16.6106 -3.61271 16.4924 10.6381 -80.5424 1.67081 39.6104 -0.601738 8.86766 -0.227009 1.10888 0.379755 -15.8829 -8.84725 0.0 0.0 0.0 8.07218 12.4525 -6.51111 -44.8661 -0.805003 6.66563 26.0101 26.9059 -3.67515 0.54516 -0.0 -0.0 -0.0 0.0 -0.0 12.8356 24.6953 -8.22596 -17.8477 -0.315048 -2.70971 38.6927 16.0848 5.08447 24.7816 -0.0 -0.0 0.0 0.0 0.0 
2559.32551517 750.72 -1493.39379169 102.905548219 85.751899503 -104.852756226 -0.967135 0.262066 0.772159 -0.966828 0.212402 0.787269 -0.963587 0.0285014 0.814918 -0.96448 0.156841 0.800192 -2.00775 3.90865 0.3807 -1.98509 6.75746 0.914486 -0.0 0.0 -0.0 -2.26697 15.7696 -1.73825 -13.0357 -21.6031 75.8679 0.240075 -6.78229 0.0142259 -30.7171 -2.02229 3.31745 -0.815958 7.49529 -2.17697 -0.0 0.0 -0.0 3.12267 16.9129 -4.68029 17.2349 11.4922 -79.5699 1.69636 40.0378 -0.618096 9.35457 -0.234472 1.17063 0.49564 -14.1518 -8.92477 0.0 0.0 0.0 10.5903 13.4312 -9.06094 -42.8768 -0.659856 6.39624 25.0178 26.3541 -3.53894 -0.288514 0.0 0.0 -0.0 0.0 -0.0 11.114 24.8438 -8.37055 -16.9413 -0.319513 -2.57071 37.6571 17.4439 5.03605 24.7784 -0.0 -0.0 0.0 0.0 0.0 
2544.0971913 748.792 -1485.74376835 114.815883337 84.6013885743 -117.05324252 -0.906351 0.20197 0.971403 -0.905837 0.139751 0.982284 -0.903005 -0.0854141 0.988492 -0.904362 0.0717638 0.989576 -3.98617 4.45359 0.15621 -3.96601 8.02153 0.866788 -0.0 0.0 -0.0 -2.67302 16.2691 -2.29189 -15.1705 -20.9314 76.6991 0.197709 -5.59381 0.00965895 -31.2721 -2.07433 3.36601 -0.579212 7.87255 -0.478441 -0.0 0.0 -0.0 3.54957 16.0237 -5.67075 18.7351 11.4514 -79.2922 1.90016 43.2631 -0.753597 10.2957 -0.247409 1.29014 0.801786 -10.712 -9.58899 0.0 0.0 0.0 13.693 12.9932 -9.98499 -37.9747 -0.342975 5.71266 25.1339 26.2898 -3.55204 -0.753709 0.0 0.0 -0.0 0.0 -0.0 8.11884 25.6107 -7.75467 -14.0031 -0.318866 -2.11996 38.6136 19.6664 5.2126 25.201 -0.0 -0.0 0.0 0.0 0.0 
2538.74937697 749.643 -1476.78358545 133.843815448 83.6981742624 -135.776459384 -0.90321 0.15149 1.01313 -0.902643 0.0867177 1.02072 -0.90066 -0.145717 1.01398 -0.902095 0.0162419 1.02427 -3.0502 4.62744 0.117364 -3.02189 8.32084 0.795316 -0.0 0.0 -0.0 -2.60425 16.3904 -2.16106 -15.7739 -21.2279 76.5454 0.239177 -6.75715 0.01412 -31.721 -2.11676 3.40492 -0.566102 8.04859 -0.318252 -0.0 0.0 -0.0 3.63226 14.8415 -5.94894 18.3343 11.194 -78.931 2.12207 46.4244 -0.910141 10.5168 -0.250164 1.31826 0.850946 -9.70612 -9.52755 0.0 0.0 0.0 15.1063 13.2223 -9.99755 -33.6327 -0.11213 5.08691 25.5333 25.2223 -3.57868 -0.803705 0.0 0.0 -0.0 0.0 -0.0 7.69437 25.944 -7.81381 -12.9539 -0.313035 -1.95908 38.1623 20.2569 5.19508 24.9497 -0.0 -0.0 0.0 0.0 0.0 
2470.94737349 758.865 -1506.28034262 -13.3106548733 84.2654273391 15.090619705 1.16187 -0.292775 -0.455171 1.16195 -0.263219 -0.472878 1.16418 -0.168444 -0.514319 1.16389 -0.247556 -0.481262 -4.9063 5.34331 0.819862 -4.88789 9.20254 1.75298 -0.0 0.0 -0.0 -0.262317 13.6642 1.18207 -12.3852 -20.3793 73.6317 0.265221 -7.48498 0.0173486 -31.1996 -2.0675 3.35969 0.00617563 14.8923 6.13666 -0.0 0.0 -0.0 1.8723 7.11409 -2.96661 -2.0442 13.1232 -76.2009 2.91031 55.2427 -1.52309 9.9136 -0.242394 1.2416 1.49545 -4.55916 -11.8367 0.0 0.0 0.0 14.5156 21.1876 -11.5425 -19.6412 0.299735 2.98446 30.7261 22.3616 -4.13026 -3.84149 0.0 0.0 -0.0 0.0 -0.0 7.22037 26.6416 -8.98117 -5.29105 -0.181403 -0.791469 37.9398 24.8853 5.39685 24.5856 -0.0 -0.0 0.0 0.0 0.0 
2470.90314778 758.865 -1505.82826115 -13.4930313318 84.3417785542 15.2739011997 1.16187 -0.292775 -0.455171 1.16195 -0.263219 -0.472878 1.16418 -0.168444 -0.514319 1.16389 -0.247556 -0.481262 -4.9063 5.34331 0.819862 -4.88789 9.20254 1.75298 -0.0 0.0 -0.0 -0.262317 13.6642 1.18207 -12.3852 -20.3793 73.6317 0.265221 -7.48498 0.0173486 -31.1996 -2.0675 3.35969 0.00617563 14.8923 6.13666 -0.0 0.0 -0.0 1.8723 7.11409 -2.96661 -2.0442 13.1232 -76.2009 2.91031 55.2427 -1.52309 9.9136 -0.242394 1.2416 1.49545 -4.55916 -11.8367 0.0 0.0 0.0 14.5156 21.1876 -11.5425 -19.6412 0.299735 2.98446 30.7261 22.3616 -4.13026 -3.84149 0.0 0.0 -0.0 0.0 -0.0 7.22037 26.6416 -8.98117 -5.29105 -0.181403 -0.791469 37.9398 24.8853 5.39685 24.5856 -0.0 -0.0 0.0 0.0 0.0 
2470.88098893 758.865 -1505.59931255 -13.5872761506 84.3804189948 15.3686042892 1.16187 -0.292775 -0.455171 1.16195 -0.263219 -0.472878 1.16418 -0.168444 -0.514319 1.16389 -0.247556 -0.481262 -4.9063 5.34331 0.819862 -4.88789 9.20254 1.75298 -0.0 0.0 -0.0 -0.262317 13.6642 1.18207 -12.3852 -20.3793 73.6317 0.265221 -7.48498 0.0173486 -31.1996 -2.0675 3.35969 0.00617563 14.8923 6.13666 -0.0 0.0 -0.0 1.8723 7.11409 -2.96661 -2.0442 13.1232 -76.2009 2.91031 55.2427 -1.52309 9.9136 -0.242394 1.2416 1.49545 -4.55916 -11.8367 0.0 0.0 0.0 14.5156 21.1876 -11.5425 -19.6412 0.299735 2.98446 30.7261 22.3616 -4.13026 -3.84149 0.0 0.0 -0.0 0.0 -0.0 7.22037 26.6416 -8.98117 -5.29105 -0.181403 -0.791469 37.9398 24.8853 5.39685 24.5856 -0.0 -0.0 0.0 0.0 0.0 
2470.67729028 758.865 -1503.41116223 -14.557644052 84.7487642527 16.3433497975 1.16187 -0.292775 -0.455171 1.16195 -0.263219 -0.472878 1.16418 -0.168444 -0.514319 1.16389 -0.247556 -0.481262 -4.9063 5.34331 0.819862 -4.88789 9.20254 1.75298 -0.0 0.0 -0.0 -0.262317 13.6642 1.18207 -12.3852 -20.3793 73.6317 0.265221 -7.48498 0.0173486 -31.1996 -2.0675 3.35969 0.00617563 14.8923 6.13666 -0.0 0.0 -0.0 1.8723 7.11409 -2.96661 -2.0442 13.1232 -76.2009 2.91031 55.2427 -1.52309 9.9136 -0.242394 1.2416 1.49545 -4.55916 -11.8367 0.0 0.0 0.0 14.5156 21.1876 -11.5425 -19.6412 0.299735 2.98446 30.7261 22.3616 -4.13026 -3.84149 0.0 0.0 -0.0 0.0 -0.0 7.22037 26.6416 -8.98117 -5.29105 -0.181403 -0.791469 37.9398 24.8853 5.39685 24.5856 -0.0 -0.0 0.0 0.0 0.0 
2470.53747385 758.865 -1501.80973327 -15.3582766851 85.0171241972 17.1471837634 1.16187 -0.292775 -0.455171 1.16195 -0.263219 -0.472878 1.16418 -0.168444 -0.514319 1.16389 -0.247556 -0.481262 -4.9063 5.34331 0.819862 -4.88789 9.20254 1.75298 -0.0 0.0 -0.0 -0.262317 13.6642 1.18207 -12.3852 -20.3793 73.6317 0.265221 -7.48498 0.0173486 -31.1996 -2.0675 3.35969 0.00617563 14.8923 6.13666 -0.0 0.0 -0.0 1.8723 7.11409 -2.96661 -2.0442 13.1232 -76.2009 2.91031 55.2427 -1.52309 9.9136 -0.242394 1.2416 1.49545 -4.55916 -11.8367 0.0 0.0 0.0 14.5156 21.1876 -11.5425 -19.6412 0.299735 2.98446 30.7261 22.3616 -4.13026 -3.84149 0.0 0.0 -0.0 0.0 -0.0 7.22037 26.6416 -8.98117 -5.29105 -0.181403 -0.791469 37.9398 24.8853 5.39685 24.5856 -0.0 -0.0 0.0 0.0 0.0 
2470.71123158 758.865 -1503.7869358 -14.3814693235 84.68563752 16.1664235823 1.16187 -0.292775 -0.455171 1.16195 -0.263219 -0.472878 1.16418 -0.168444 -0.514319 1.16389 -0.247556 -0.481262 -4.9063 5.34331 0.819862 -4.88789 9.20254 1.75298 -0.0 0.0 -0.0 -0.262317 13.6642 1.18207 -12.3852 -20.3793 73.6317 0.265221 -7.48498 0.0173486 -31.1996 -2.0675 3.35969 0.00617563 14.8923 6.13666 -0.0 0.0 -0.0 1.8723 7.11409 -2.96661 -2.0442 13.1232 -76.2009 2.91031 55.2427 -1.52309 9.9136 -0.242394 1.2416 1.49545 -4.55916 -11.8367 0.0 0.0 0.0 14.5156 21.1876 -11.5425 -19.6412 0.299735 2.98446 30.7261 22.3616 -4.13026 -3.84149 0.0 0.0 -0.0 0.0 -0.0 7.22037 26.6416 -8.98117 -5.29105 -0.181403 -0.791469 37.9398 24.8853 5.39685 24.5856 -0.0 -0.0 0.0 0.0 0.0 
